<mxfile host="app.diagrams.net" modified="2020-12-25T20:09:34.709Z" agent="5.0 (Windows NT 10.0; Win64; x64) AppleWebKit/537.36 (KHTML, like Gecko) Chrome/87.0.4280.88 Safari/537.36" etag="GEFHopjnR0v_GnnLTT_3" version="14.1.2" type="github">
  <diagram id="C5RBs43oDa-KdzZeNtuy" name="Page-1">
    <mxGraphModel dx="1865" dy="588" grid="1" gridSize="10" guides="1" tooltips="1" connect="1" arrows="1" fold="1" page="1" pageScale="1" pageWidth="827" pageHeight="1169" math="0" shadow="0">
      <root>
        <mxCell id="WIyWlLk6GJQsqaUBKTNV-0" />
        <mxCell id="WIyWlLk6GJQsqaUBKTNV-1" parent="WIyWlLk6GJQsqaUBKTNV-0" />
        <mxCell id="wBKWd4tEANzi7vDV8hM1-0" value="" style="edgeStyle=orthogonalEdgeStyle;rounded=0;orthogonalLoop=1;jettySize=auto;html=1;" edge="1" parent="WIyWlLk6GJQsqaUBKTNV-1" source="wBKWd4tEANzi7vDV8hM1-1" target="wBKWd4tEANzi7vDV8hM1-2">
          <mxGeometry relative="1" as="geometry" />
        </mxCell>
        <mxCell id="wBKWd4tEANzi7vDV8hM1-1" value="Начало" style="rounded=1;whiteSpace=wrap;html=1;fontSize=12;glass=0;strokeWidth=1;shadow=0;fillColor=#d5e8d4;strokeColor=#82b366;" vertex="1" parent="WIyWlLk6GJQsqaUBKTNV-1">
          <mxGeometry x="165" y="80" width="120" height="40" as="geometry" />
        </mxCell>
        <mxCell id="wBKWd4tEANzi7vDV8hM1-2" value="поле email" style="shape=parallelogram;perimeter=parallelogramPerimeter;whiteSpace=wrap;html=1;fixedSize=1;" vertex="1" parent="WIyWlLk6GJQsqaUBKTNV-1">
          <mxGeometry x="170" y="160" width="110" height="40" as="geometry" />
        </mxCell>
        <mxCell id="wBKWd4tEANzi7vDV8hM1-3" value="" style="endArrow=classic;html=1;" edge="1" parent="WIyWlLk6GJQsqaUBKTNV-1" source="wBKWd4tEANzi7vDV8hM1-2">
          <mxGeometry width="50" height="50" relative="1" as="geometry">
            <mxPoint x="225" y="250" as="sourcePoint" />
            <mxPoint x="225" y="240" as="targetPoint" />
          </mxGeometry>
        </mxCell>
        <mxCell id="wBKWd4tEANzi7vDV8hM1-4" style="edgeStyle=orthogonalEdgeStyle;rounded=0;orthogonalLoop=1;jettySize=auto;html=1;exitX=0.5;exitY=1;exitDx=0;exitDy=0;" edge="1" parent="WIyWlLk6GJQsqaUBKTNV-1" source="wBKWd4tEANzi7vDV8hM1-1" target="wBKWd4tEANzi7vDV8hM1-1">
          <mxGeometry relative="1" as="geometry" />
        </mxCell>
        <mxCell id="wBKWd4tEANzi7vDV8hM1-5" value="нет" style="edgeStyle=orthogonalEdgeStyle;rounded=0;orthogonalLoop=1;jettySize=auto;html=1;exitX=0;exitY=0.5;exitDx=0;exitDy=0;" edge="1" parent="WIyWlLk6GJQsqaUBKTNV-1" source="wBKWd4tEANzi7vDV8hM1-8" target="wBKWd4tEANzi7vDV8hM1-13">
          <mxGeometry relative="1" as="geometry" />
        </mxCell>
        <mxCell id="wBKWd4tEANzi7vDV8hM1-6" style="edgeStyle=orthogonalEdgeStyle;rounded=0;orthogonalLoop=1;jettySize=auto;html=1;exitX=1;exitY=0.5;exitDx=0;exitDy=0;" edge="1" parent="WIyWlLk6GJQsqaUBKTNV-1" source="wBKWd4tEANzi7vDV8hM1-8">
          <mxGeometry relative="1" as="geometry">
            <mxPoint x="230" y="358" as="targetPoint" />
            <Array as="points">
              <mxPoint x="360" y="280" />
              <mxPoint x="360" y="340" />
              <mxPoint x="230" y="340" />
            </Array>
          </mxGeometry>
        </mxCell>
        <mxCell id="wBKWd4tEANzi7vDV8hM1-7" value="да" style="edgeLabel;html=1;align=center;verticalAlign=middle;resizable=0;points=[];" vertex="1" connectable="0" parent="wBKWd4tEANzi7vDV8hM1-6">
          <mxGeometry x="-0.8799" y="-3" relative="1" as="geometry">
            <mxPoint as="offset" />
          </mxGeometry>
        </mxCell>
        <mxCell id="wBKWd4tEANzi7vDV8hM1-8" value="email валиден" style="rhombus;whiteSpace=wrap;html=1;" vertex="1" parent="WIyWlLk6GJQsqaUBKTNV-1">
          <mxGeometry x="165" y="240" width="120" height="80" as="geometry" />
        </mxCell>
        <mxCell id="wBKWd4tEANzi7vDV8hM1-9" value="да" style="edgeStyle=orthogonalEdgeStyle;rounded=0;orthogonalLoop=1;jettySize=auto;html=1;exitX=1;exitY=0.5;exitDx=0;exitDy=0;entryX=0.5;entryY=0;entryDx=0;entryDy=0;" edge="1" parent="WIyWlLk6GJQsqaUBKTNV-1" source="wBKWd4tEANzi7vDV8hM1-11">
          <mxGeometry relative="1" as="geometry">
            <mxPoint x="240" y="630" as="targetPoint" />
            <Array as="points">
              <mxPoint x="400" y="470" />
              <mxPoint x="400" y="600" />
              <mxPoint x="240" y="600" />
            </Array>
          </mxGeometry>
        </mxCell>
        <mxCell id="wBKWd4tEANzi7vDV8hM1-10" value="нет" style="edgeStyle=orthogonalEdgeStyle;rounded=0;orthogonalLoop=1;jettySize=auto;html=1;exitX=0;exitY=0.5;exitDx=0;exitDy=0;" edge="1" parent="WIyWlLk6GJQsqaUBKTNV-1" source="wBKWd4tEANzi7vDV8hM1-11">
          <mxGeometry relative="1" as="geometry">
            <mxPoint x="100" y="470" as="targetPoint" />
          </mxGeometry>
        </mxCell>
        <mxCell id="wBKWd4tEANzi7vDV8hM1-11" value="пароль больше 8 символов" style="rhombus;whiteSpace=wrap;html=1;" vertex="1" parent="WIyWlLk6GJQsqaUBKTNV-1">
          <mxGeometry x="170" y="430" width="120" height="80" as="geometry" />
        </mxCell>
        <mxCell id="wBKWd4tEANzi7vDV8hM1-12" style="edgeStyle=orthogonalEdgeStyle;rounded=0;orthogonalLoop=1;jettySize=auto;html=1;exitX=0;exitY=0.5;exitDx=0;exitDy=0;entryX=0;entryY=0.5;entryDx=0;entryDy=0;" edge="1" parent="WIyWlLk6GJQsqaUBKTNV-1" source="wBKWd4tEANzi7vDV8hM1-13" target="wBKWd4tEANzi7vDV8hM1-2">
          <mxGeometry relative="1" as="geometry">
            <Array as="points">
              <mxPoint x="-120" y="280" />
              <mxPoint x="-120" y="180" />
            </Array>
          </mxGeometry>
        </mxCell>
        <mxCell id="wBKWd4tEANzi7vDV8hM1-13" value="Сообщение это не email" style="shape=parallelogram;perimeter=parallelogramPerimeter;whiteSpace=wrap;html=1;fixedSize=1;" vertex="1" parent="WIyWlLk6GJQsqaUBKTNV-1">
          <mxGeometry x="-40" y="250" width="170" height="60" as="geometry" />
        </mxCell>
        <mxCell id="wBKWd4tEANzi7vDV8hM1-14" style="edgeStyle=orthogonalEdgeStyle;rounded=0;orthogonalLoop=1;jettySize=auto;html=1;exitX=0;exitY=0.5;exitDx=0;exitDy=0;entryX=0;entryY=0.25;entryDx=0;entryDy=0;" edge="1" parent="WIyWlLk6GJQsqaUBKTNV-1" source="wBKWd4tEANzi7vDV8hM1-15" target="wBKWd4tEANzi7vDV8hM1-17">
          <mxGeometry relative="1" as="geometry">
            <Array as="points">
              <mxPoint x="-70" y="470" />
              <mxPoint x="-70" y="373" />
            </Array>
          </mxGeometry>
        </mxCell>
        <mxCell id="wBKWd4tEANzi7vDV8hM1-15" value="сообщение пароль должен быть больше 8 симовлов" style="shape=parallelogram;perimeter=parallelogramPerimeter;whiteSpace=wrap;html=1;fixedSize=1;" vertex="1" parent="WIyWlLk6GJQsqaUBKTNV-1">
          <mxGeometry x="-30" y="440" width="140" height="60" as="geometry" />
        </mxCell>
        <mxCell id="wBKWd4tEANzi7vDV8hM1-16" style="edgeStyle=orthogonalEdgeStyle;rounded=0;orthogonalLoop=1;jettySize=auto;html=1;exitX=0.5;exitY=1;exitDx=0;exitDy=0;" edge="1" parent="WIyWlLk6GJQsqaUBKTNV-1" source="wBKWd4tEANzi7vDV8hM1-17" target="wBKWd4tEANzi7vDV8hM1-11">
          <mxGeometry relative="1" as="geometry" />
        </mxCell>
        <mxCell id="wBKWd4tEANzi7vDV8hM1-17" value="поле пароль" style="shape=parallelogram;perimeter=parallelogramPerimeter;whiteSpace=wrap;html=1;fixedSize=1;" vertex="1" parent="WIyWlLk6GJQsqaUBKTNV-1">
          <mxGeometry x="175" y="360" width="110" height="40" as="geometry" />
        </mxCell>
        <mxCell id="wBKWd4tEANzi7vDV8hM1-18" style="edgeStyle=orthogonalEdgeStyle;rounded=0;orthogonalLoop=1;jettySize=auto;html=1;exitX=0.5;exitY=1;exitDx=0;exitDy=0;entryX=0.5;entryY=0;entryDx=0;entryDy=0;" edge="1" parent="WIyWlLk6GJQsqaUBKTNV-1" source="wBKWd4tEANzi7vDV8hM1-19" target="wBKWd4tEANzi7vDV8hM1-21">
          <mxGeometry relative="1" as="geometry" />
        </mxCell>
        <mxCell id="wBKWd4tEANzi7vDV8hM1-19" value="кнопка авторизоваться активна" style="rounded=0;whiteSpace=wrap;html=1;" vertex="1" parent="WIyWlLk6GJQsqaUBKTNV-1">
          <mxGeometry x="180" y="630" width="120" height="60" as="geometry" />
        </mxCell>
        <mxCell id="wBKWd4tEANzi7vDV8hM1-20" style="edgeStyle=orthogonalEdgeStyle;rounded=0;orthogonalLoop=1;jettySize=auto;html=1;exitX=0.5;exitY=1;exitDx=0;exitDy=0;" edge="1" parent="WIyWlLk6GJQsqaUBKTNV-1" source="wBKWd4tEANzi7vDV8hM1-21">
          <mxGeometry relative="1" as="geometry">
            <mxPoint x="240" y="880" as="targetPoint" />
          </mxGeometry>
        </mxCell>
        <mxCell id="wBKWd4tEANzi7vDV8hM1-21" value="нажать авторизоваться" style="rounded=0;whiteSpace=wrap;html=1;" vertex="1" parent="WIyWlLk6GJQsqaUBKTNV-1">
          <mxGeometry x="180" y="720" width="120" height="70" as="geometry" />
        </mxCell>
        <mxCell id="wBKWd4tEANzi7vDV8hM1-22" value="да" style="edgeStyle=orthogonalEdgeStyle;rounded=0;orthogonalLoop=1;jettySize=auto;html=1;exitX=1;exitY=0.5;exitDx=0;exitDy=0;entryX=0.5;entryY=0;entryDx=0;entryDy=0;" edge="1" parent="WIyWlLk6GJQsqaUBKTNV-1" source="wBKWd4tEANzi7vDV8hM1-24" target="wBKWd4tEANzi7vDV8hM1-26">
          <mxGeometry relative="1" as="geometry">
            <Array as="points">
              <mxPoint x="400" y="930" />
              <mxPoint x="400" y="1020" />
              <mxPoint x="235" y="1020" />
            </Array>
          </mxGeometry>
        </mxCell>
        <mxCell id="wBKWd4tEANzi7vDV8hM1-23" style="edgeStyle=orthogonalEdgeStyle;rounded=0;orthogonalLoop=1;jettySize=auto;html=1;exitX=0;exitY=0.5;exitDx=0;exitDy=0;entryX=1;entryY=0.5;entryDx=0;entryDy=0;" edge="1" parent="WIyWlLk6GJQsqaUBKTNV-1" source="wBKWd4tEANzi7vDV8hM1-24" target="wBKWd4tEANzi7vDV8hM1-31">
          <mxGeometry relative="1" as="geometry">
            <mxPoint x="60" y="930" as="targetPoint" />
          </mxGeometry>
        </mxCell>
        <mxCell id="wBKWd4tEANzi7vDV8hM1-24" value="email&lt;br&gt;&amp;nbsp;есть в базе" style="rhombus;whiteSpace=wrap;html=1;" vertex="1" parent="WIyWlLk6GJQsqaUBKTNV-1">
          <mxGeometry x="190" y="880" width="100" height="100" as="geometry" />
        </mxCell>
        <mxCell id="wBKWd4tEANzi7vDV8hM1-25" value="да" style="edgeStyle=orthogonalEdgeStyle;rounded=0;orthogonalLoop=1;jettySize=auto;html=1;exitX=1;exitY=0.5;exitDx=0;exitDy=0;" edge="1" parent="WIyWlLk6GJQsqaUBKTNV-1" source="wBKWd4tEANzi7vDV8hM1-26" target="wBKWd4tEANzi7vDV8hM1-28">
          <mxGeometry relative="1" as="geometry">
            <Array as="points">
              <mxPoint x="400" y="1090" />
              <mxPoint x="400" y="1165" />
              <mxPoint x="240" y="1165" />
            </Array>
          </mxGeometry>
        </mxCell>
        <mxCell id="wBKWd4tEANzi7vDV8hM1-26" value="пароль верный" style="rhombus;whiteSpace=wrap;html=1;" vertex="1" parent="WIyWlLk6GJQsqaUBKTNV-1">
          <mxGeometry x="185" y="1040" width="100" height="100" as="geometry" />
        </mxCell>
        <mxCell id="wBKWd4tEANzi7vDV8hM1-27" style="edgeStyle=orthogonalEdgeStyle;rounded=0;orthogonalLoop=1;jettySize=auto;html=1;exitX=0.5;exitY=1;exitDx=0;exitDy=0;entryX=0.5;entryY=0;entryDx=0;entryDy=0;" edge="1" parent="WIyWlLk6GJQsqaUBKTNV-1" source="wBKWd4tEANzi7vDV8hM1-28" target="wBKWd4tEANzi7vDV8hM1-29">
          <mxGeometry relative="1" as="geometry" />
        </mxCell>
        <mxCell id="wBKWd4tEANzi7vDV8hM1-28" value="вход на сайт" style="shape=parallelogram;perimeter=parallelogramPerimeter;whiteSpace=wrap;html=1;fixedSize=1;size=10;" vertex="1" parent="WIyWlLk6GJQsqaUBKTNV-1">
          <mxGeometry x="180" y="1190" width="120" height="60" as="geometry" />
        </mxCell>
        <mxCell id="wBKWd4tEANzi7vDV8hM1-29" value="" style="rounded=1;whiteSpace=wrap;html=1;fillColor=#d5e8d4;strokeColor=#82b366;" vertex="1" parent="WIyWlLk6GJQsqaUBKTNV-1">
          <mxGeometry x="180" y="1290" width="120" height="60" as="geometry" />
        </mxCell>
        <mxCell id="wBKWd4tEANzi7vDV8hM1-30" style="edgeStyle=orthogonalEdgeStyle;rounded=0;orthogonalLoop=1;jettySize=auto;html=1;exitX=0;exitY=0.5;exitDx=0;exitDy=0;entryX=0;entryY=0.5;entryDx=0;entryDy=0;" edge="1" parent="WIyWlLk6GJQsqaUBKTNV-1" source="wBKWd4tEANzi7vDV8hM1-31" target="wBKWd4tEANzi7vDV8hM1-35">
          <mxGeometry relative="1" as="geometry">
            <Array as="points">
              <mxPoint x="-160" y="930" />
              <mxPoint x="-160" y="1320" />
            </Array>
          </mxGeometry>
        </mxCell>
        <mxCell id="wBKWd4tEANzi7vDV8hM1-31" value="неправильная почта или пароль" style="shape=parallelogram;perimeter=parallelogramPerimeter;whiteSpace=wrap;html=1;fixedSize=1;" vertex="1" parent="WIyWlLk6GJQsqaUBKTNV-1">
          <mxGeometry x="-60" y="900" width="120" height="60" as="geometry" />
        </mxCell>
        <mxCell id="wBKWd4tEANzi7vDV8hM1-32" style="edgeStyle=orthogonalEdgeStyle;rounded=0;orthogonalLoop=1;jettySize=auto;html=1;exitX=0;exitY=0.5;exitDx=0;exitDy=0;entryX=1;entryY=0.5;entryDx=0;entryDy=0;" edge="1" parent="WIyWlLk6GJQsqaUBKTNV-1" target="wBKWd4tEANzi7vDV8hM1-34">
          <mxGeometry relative="1" as="geometry">
            <mxPoint x="55" y="1090" as="targetPoint" />
            <mxPoint x="185" y="1090" as="sourcePoint" />
          </mxGeometry>
        </mxCell>
        <mxCell id="wBKWd4tEANzi7vDV8hM1-33" style="edgeStyle=orthogonalEdgeStyle;rounded=0;orthogonalLoop=1;jettySize=auto;html=1;exitX=0;exitY=0.5;exitDx=0;exitDy=0;" edge="1" parent="WIyWlLk6GJQsqaUBKTNV-1" source="wBKWd4tEANzi7vDV8hM1-34">
          <mxGeometry relative="1" as="geometry">
            <mxPoint x="-55" y="1320" as="targetPoint" />
            <Array as="points">
              <mxPoint x="-120" y="1090" />
              <mxPoint x="-120" y="1320" />
            </Array>
          </mxGeometry>
        </mxCell>
        <mxCell id="wBKWd4tEANzi7vDV8hM1-34" value="неправильная почта или пароль" style="shape=parallelogram;perimeter=parallelogramPerimeter;whiteSpace=wrap;html=1;fixedSize=1;" vertex="1" parent="WIyWlLk6GJQsqaUBKTNV-1">
          <mxGeometry x="-65" y="1060" width="120" height="60" as="geometry" />
        </mxCell>
        <mxCell id="wBKWd4tEANzi7vDV8hM1-35" value="" style="rounded=1;whiteSpace=wrap;html=1;fillColor=#f8cecc;strokeColor=#b85450;" vertex="1" parent="WIyWlLk6GJQsqaUBKTNV-1">
          <mxGeometry x="-50" y="1290" width="120" height="60" as="geometry" />
        </mxCell>
      </root>
    </mxGraphModel>
  </diagram>
</mxfile>
